<svg width="1030" height="190" viewBox="0 0 1030 190" fill="none" xmlns="http://www.w3.org/2000/svg">
<path d="M159.099 186.411L99.0888 154.846L39.0644 186.387L50.5399 119.56L1.99366 72.2201L69.0965 62.483L99.1179 1.68435L129.115 62.4957L196.214 72.2593L147.65 119.578L159.099 186.411Z" fill="#04AA6D"/>
<path d="M367.099 186.411L307.089 154.846L247.064 186.387L258.54 119.56L209.994 72.2201L277.097 62.483L307.118 1.68435L337.115 62.4957L404.214 72.2593L355.65 119.578L367.099 186.411Z" fill="#04AA6D"/>
<path d="M575.099 186.411L515.089 154.846L455.064 186.387L466.54 119.56L417.994 72.2201L485.097 62.483L515.118 1.68435L545.115 62.4957L612.214 72.2593L563.65 119.578L575.099 186.411Z" fill="#04AA6D"/>
<path d="M783.099 186.411L723.089 154.846L663.064 186.387L674.54 119.56L625.994 72.2201L693.097 62.483L723.118 1.68435L753.115 62.4957L820.214 72.2593L771.65 119.578L783.099 186.411Z" fill="#04AA6D"/>
<path d="M991.099 186.411L931.089 154.846L871.064 186.387L882.54 119.56L833.994 72.2201L901.097 62.483L931.118 1.68435L961.115 62.4957L1028.21 72.2593L979.65 119.578L991.099 186.411Z" fill="#04AA6D"/>
</svg>
